<svg width="535" height="539" viewBox="0 0 535 539" fill="none" xmlns="http://www.w3.org/2000/svg">
<path d="M74.2919 81.171C73.9593 81.5162 73.7538 81.9643 73.7085 82.4419C72.7068 93.0038 72.1331 103.693 72.0049 114.492C71.4041 165.104 80.6451 213.536 97.9466 257.96C98.7054 259.909 101.517 259.671 102 257.636C128.1 147.712 201.495 56.3801 299.228 6.09896C301.083 5.1446 300.642 2.36728 298.573 2.10581C288.618 0.847735 278.489 0.141572 268.217 0.0191755C192.181 -0.886786 123.241 30.3687 74.2919 81.171Z" fill="#1342ED"/>
<path d="M12.4528 346.098C12.5975 346.556 12.8931 346.95 13.2907 347.217C22.0853 353.127 31.1951 358.721 40.6135 363.974C84.7547 388.594 131.667 403.505 178.899 409.407C180.971 409.666 182.1 407.075 180.544 405.681C96.4752 330.362 51.2392 222.22 53.623 112.174C53.6682 110.085 51.0201 109.152 49.8058 110.851C43.9631 119.023 38.5218 127.612 33.5247 136.604C-3.46327 203.168 -8.84202 278.788 12.4528 346.098Z" fill="#1342ED"/>
<path d="M198.862 530.485C199.325 530.606 199.815 530.567 200.253 530.373C209.938 526.083 219.525 521.356 228.99 516.187C273.347 491.959 310.993 460.197 341.208 423.35C342.533 421.734 340.951 419.393 338.943 419.966C230.477 450.92 115.067 431.45 23.4922 370.634C21.7541 369.48 19.5521 371.224 20.3363 373.16C24.1096 382.474 28.4487 391.671 33.3661 400.708C69.7645 467.597 130.693 512.555 198.862 530.485Z" fill="#1342ED"/>
<path d="M459.754 454.955C460.082 454.605 460.281 454.154 460.319 453.675C461.163 443.1 461.577 432.403 461.545 421.603C461.391 370.988 451.429 322.7 433.467 278.539C432.68 276.602 429.872 276.882 429.419 278.924C404.961 389.226 332.935 481.646 235.962 533.384C234.121 534.366 234.604 537.136 236.677 537.366C246.649 538.475 256.787 539.03 267.061 538.999C343.101 538.767 411.568 506.484 459.754 454.955Z" fill="#1342ED"/>
<path d="M525.166 191.452C525.037 190.99 524.755 190.586 524.367 190.305C515.78 184.095 506.868 178.191 497.636 172.616C454.367 146.487 407.995 129.967 360.994 122.439C358.932 122.109 357.715 124.659 359.222 126.106C440.652 204.281 482.145 313.919 475.98 423.818C475.863 425.903 478.478 426.927 479.75 425.272C485.87 417.306 491.603 408.91 496.906 400.095C536.16 334.847 544.134 259.458 525.166 191.452Z" fill="#1342ED"/>
<path d="M328.373 3.96246C327.906 3.85608 327.417 3.91192 326.986 4.12035C317.448 8.72974 308.023 13.7718 298.734 19.2526C255.203 44.9396 218.628 77.9341 189.648 115.763C188.377 117.422 190.036 119.709 192.024 119.07C299.406 84.5332 415.397 100.161 508.932 157.904C510.708 159 512.851 157.184 512.003 155.275C507.924 146.091 503.283 137.043 498.069 128.174C459.479 62.5305 397.098 19.6193 328.373 3.96246Z" fill="#1342ED"/>
</svg>
